{
  "accessors": [
    {
      "bufferView": 2,
      "componentType": 5126,
      "count": 65532,
      "max": [
        1.1112676858901978,
        0.6115143895149231,
        0.6636516451835632
      ],
      "min": [
        -0.10349442064762115,
        -1.2819265127182007,
        0.11114072799682617
      ],
      "type": "VEC3"
    },
    {
      "bufferView": 2,
      "byteOffset": 786384,
      "componentType": 5126,
      "count": 65532,
      "max": [
        0.999998927116394,
        0.9997827410697937,
        0.9999989867210388
      ],
      "min": [
        -0.999999463558197,
        -0.9999409914016724,
        -0.9987475872039795
      ],
      "type": "VEC3"
    },
    {
      "bufferView": 1,
      "componentType": 5126,
      "count": 65532,
      "max": [
        0.9997548460960388,
        0.9704588651657104
      ],
      "min": [
        0.000244140625,
        0.0002451731124892831
      ],
      "type": "VEC2"
    },
    {
      "bufferView": 1,
      "byteOffset": 524256,
      "componentType": 5126,
      "count": 65532,
      "max": [
        0.9997548460960388,
        0.9704588651657104
      ],
      "min": [
        0.000244140625,
        0.0002451731124892831
      ],
      "type": "VEC2"
    },
    {
      "bufferView": 0,
      "componentType": 5125,
      "count": 248109,
      "type": "SCALAR"
    },
    {
      "bufferView": 2,
      "byteOffset": 1572768,
      "componentType": 5126,
      "count": 65532,
      "max": [
        1.118016242980957,
        1.2937449216842651,
        0.5654526948928833
      ],
      "min": [
        -1.1151320934295654,
        -1.2815709114074707,
        0.0
      ],
      "type": "VEC3"
    },
    {
      "bufferView": 2,
      "byteOffset": 2359152,
      "componentType": 5126,
      "count": 65532,
      "max": [
        0.9999887347221375,
        0.9999814629554749,
        1.0
      ],
      "min": [
        -0.9999839067459106,
        -0.9999409914016724,
        -1.0
      ],
      "type": "VEC3"
    },
    {
      "bufferView": 1,
      "byteOffset": 1048512,
      "componentType": 5126,
      "count": 65532,
      "max": [
        0.9997437000274658,
        0.9841307401657104
      ],
      "min": [
        0.000244140625,
        0.000246842042542994
      ],
      "type": "VEC2"
    },
    {
      "bufferView": 1,
      "byteOffset": 1572768,
      "componentType": 5126,
      "count": 65532,
      "max": [
        0.9997437000274658,
        0.9841307401657104
      ],
      "min": [
        0.000244140625,
        0.000246842042542994
      ],
      "type": "VEC2"
    },
    {
      "bufferView": 0,
      "byteOffset": 992436,
      "componentType": 5125,
      "count": 301524,
      "type": "SCALAR"
    },
    {
      "bufferView": 2,
      "byteOffset": 3145536,
      "componentType": 5126,
      "count": 65532,
      "max": [
        1.1093119382858276,
        1.2641162872314453,
        0.39328038692474365
      ],
      "min": [
        -1.0073050260543823,
        -1.2815709114074707,
        0.0
      ],
      "type": "VEC3"
    },
    {
      "bufferView": 2,
      "byteOffset": 3931920,
      "componentType": 5126,
      "count": 65532,
      "max": [
        0.9999887347221375,
        0.9999092817306519,
        1.0
      ],
      "min": [
        -0.9999884366989136,
        -0.9999409914016724,
        -1.0
      ],
      "type": "VEC3"
    },
    {
      "bufferView": 1,
      "byteOffset": 2097024,
      "componentType": 5126,
      "count": 65532,
      "max": [
        0.999721109867096,
        0.9987791776657104
      ],
      "min": [
        0.000244140625,
        0.0002566172042861581
      ],
      "type": "VEC2"
    },
    {
      "bufferView": 1,
      "byteOffset": 2621280,
      "componentType": 5126,
      "count": 65532,
      "max": [
        0.999721109867096,
        0.9987791776657104
      ],
      "min": [
        0.000244140625,
        0.0002566172042861581
      ],
      "type": "VEC2"
    },
    {
      "bufferView": 0,
      "byteOffset": 2198532,
      "componentType": 5125,
      "count": 287385,
      "type": "SCALAR"
    },
    {
      "bufferView": 2,
      "byteOffset": 4718304,
      "componentType": 5126,
      "count": 65532,
      "max": [
        0.32398906350135803,
        1.2881910800933838,
        0.3728666305541992
      ],
      "min": [
        -1.1151320934295654,
        -1.2842262983322144,
        0.0
      ],
      "type": "VEC3"
    },
    {
      "bufferView": 2,
      "byteOffset": 5504688,
      "componentType": 5126,
      "count": 65532,
      "max": [
        0.9999987483024597,
        0.9999814629554749,
        0.9999996423721313
      ],
      "min": [
        -0.9999637007713318,
        -0.9980159997940063,
        -1.0
      ],
      "type": "VEC3"
    },
    {
      "bufferView": 1,
      "byteOffset": 3145536,
      "componentType": 5126,
      "count": 65532,
      "max": [
        0.9997521638870239,
        0.9929198026657104
      ],
      "min": [
        0.000244140625,
        0.0002576900878921151
      ],
      "type": "VEC2"
    },
    {
      "bufferView": 1,
      "byteOffset": 3669792,
      "componentType": 5126,
      "count": 65532,
      "max": [
        0.9997521638870239,
        0.9929198026657104
      ],
      "min": [
        0.000244140625,
        0.0002576900878921151
      ],
      "type": "VEC2"
    },
    {
      "bufferView": 0,
      "byteOffset": 3348072,
      "componentType": 5125,
      "count": 298482,
      "type": "SCALAR"
    },
    {
      "bufferView": 2,
      "byteOffset": 6291072,
      "componentType": 5126,
      "count": 65532,
      "max": [
        1.1051621437072754,
        1.2881910800933838,
        0.34327542781829834
      ],
      "min": [
        -1.1051617860794067,
        -1.2880256175994873,
        0.0
      ],
      "type": "VEC3"
    },
    {
      "bufferView": 2,
      "byteOffset": 7077456,
      "componentType": 5126,
      "count": 65532,
      "max": [
        0.9991133809089661,
        0.9997899532318115,
        0.9999999403953552
      ],
      "min": [
        -0.9999707937240601,
        -0.9983493685722351,
        -1.0
      ],
      "type": "VEC3"
    },
    {
      "bufferView": 1,
      "byteOffset": 4194048,
      "componentType": 5126,
      "count": 65532,
      "max": [
        0.9997450709342957,
        0.9733885526657104
      ],
      "min": [
        0.000244140625,
        0.0002442790428176522
      ],
      "type": "VEC2"
    },
    {
      "bufferView": 1,
      "byteOffset": 4718304,
      "componentType": 5126,
      "count": 65532,
      "max": [
        0.9997450709342957,
        0.9733885526657104
      ],
      "min": [
        0.000244140625,
        0.0002442790428176522
      ],
      "type": "VEC2"
    },
    {
      "bufferView": 0,
      "byteOffset": 4542000,
      "componentType": 5125,
      "count": 260895,
      "type": "SCALAR"
    },
    {
      "bufferView": 2,
      "byteOffset": 7863840,
      "componentType": 5126,
      "count": 657,
      "max": [
        0.9982025027275085,
        -0.0010587899014353752,
        0.08526420593261719
      ],
      "min": [
        0.5517946481704712,
        -1.0163049697875977,
        0.0
      ],
      "type": "VEC3"
    },
    {
      "bufferView": 2,
      "byteOffset": 7871724,
      "componentType": 5126,
      "count": 657,
      "max": [
        0.8644570708274841,
        0.9911353588104248,
        0.9999598264694214
      ],
      "min": [
        -0.9738903641700745,
        -0.7386741042137146,
        -1.0
      ],
      "type": "VEC3"
    },
    {
      "bufferView": 1,
      "byteOffset": 5242560,
      "componentType": 5126,
      "count": 657,
      "max": [
        0.9995622634887695,
        0.7175291776657104
      ],
      "min": [
        0.022705078125,
        0.0002737237373366952
      ],
      "type": "VEC2"
    },
    {
      "bufferView": 1,
      "byteOffset": 5247816,
      "componentType": 5126,
      "count": 657,
      "max": [
        0.9995622634887695,
        0.7175291776657104
      ],
      "min": [
        0.022705078125,
        0.0002737237373366952
      ],
      "type": "VEC2"
    },
    {
      "bufferView": 0,
      "byteOffset": 5585580,
      "componentType": 5125,
      "count": 1119,
      "type": "SCALAR"
    }
  ],
  "asset": {
    "extras": {
      "author": "tetropak555666 (https://sketchfab.com/tetropak555666)",
      "license": "CC-BY-4.0 (http://creativecommons.org/licenses/by/4.0/)",
      "source": "https://sketchfab.com/3d-models/2024-01-25-224357-f5768ad3e00d4298b62e42d58b0ae6ac",
      "title": "2024-01-25 22:43:57"
    },
    "generator": "Sketchfab-15.65.0",
    "version": "2.0"
  },
  "bufferViews": [
    {
      "buffer": 0,
      "byteLength": 5590056,
      "name": "floatBufferViews",
      "target": 34963
    },
    {
      "buffer": 0,
      "byteLength": 5253072,
      "byteOffset": 5590056,
      "byteStride": 8,
      "name": "floatBufferViews",
      "target": 34962
    },
    {
      "buffer": 0,
      "byteLength": 7879608,
      "byteOffset": 10843128,
      "byteStride": 12,
      "name": "floatBufferViews",
      "target": 34962
    }
  ],
  "buffers": [
    {
      "byteLength": 18722736,
      "uri": "scene.bin"
    }
  ],
  "extensionsUsed": [
    "KHR_materials_unlit"
  ],
  "images": [
    {
      "uri": "textures/tex_u1_v1_baseColor.jpeg"
    }
  ],
  "materials": [
    {
      "doubleSided": true,
      "extensions": {
        "KHR_materials_unlit": {}
      },
      "name": "tex_u1_v1",
      "pbrMetallicRoughness": {
        "baseColorTexture": {
          "index": 0
        },
        "metallicFactor": 0.0
      }
    }
  ],
  "meshes": [
    {
      "name": "model_tex_u1_v1_0",
      "primitives": [
        {
          "attributes": {
            "NORMAL": 1,
            "POSITION": 0,
            "TEXCOORD_0": 2,
            "TEXCOORD_1": 3
          },
          "indices": 4,
          "material": 0,
          "mode": 4
        }
      ]
    },
    {
      "name": "model_tex_u1_v1_0",
      "primitives": [
        {
          "attributes": {
            "NORMAL": 6,
            "POSITION": 5,
            "TEXCOORD_0": 7,
            "TEXCOORD_1": 8
          },
          "indices": 9,
          "material": 0,
          "mode": 4
        }
      ]
    },
    {
      "name": "model_tex_u1_v1_0",
      "primitives": [
        {
          "attributes": {
            "NORMAL": 11,
            "POSITION": 10,
            "TEXCOORD_0": 12,
            "TEXCOORD_1": 13
          },
          "indices": 14,
          "material": 0,
          "mode": 4
        }
      ]
    },
    {
      "name": "model_tex_u1_v1_0",
      "primitives": [
        {
          "attributes": {
            "NORMAL": 16,
            "POSITION": 15,
            "TEXCOORD_0": 17,
            "TEXCOORD_1": 18
          },
          "indices": 19,
          "material": 0,
          "mode": 4
        }
      ]
    },
    {
      "name": "model_tex_u1_v1_0",
      "primitives": [
        {
          "attributes": {
            "NORMAL": 21,
            "POSITION": 20,
            "TEXCOORD_0": 22,
            "TEXCOORD_1": 23
          },
          "indices": 24,
          "material": 0,
          "mode": 4
        }
      ]
    },
    {
      "name": "model_tex_u1_v1_0",
      "primitives": [
        {
          "attributes": {
            "NORMAL": 26,
            "POSITION": 25,
            "TEXCOORD_0": 27,
            "TEXCOORD_1": 28
          },
          "indices": 29,
          "material": 0,
          "mode": 4
        }
      ]
    }
  ],
  "nodes": [
    {
      "children": [
        1
      ],
      "matrix": [
        1.0,
        0.0,
        0.0,
        0.0,
        0.0,
        2.220446049250313e-16,
        -1.0,
        0.0,
        0.0,
        1.0,
        2.220446049250313e-16,
        0.0,
        0.0,
        0.0,
        0.0,
        1.0
      ],
      "name": "Sketchfab_model"
    },
    {
      "children": [
        2
      ],
      "matrix": [
        1.0,
        0.0,
        0.0,
        0.0,
        0.0,
        0.0,
        1.0,
        0.0,
        0.0,
        -1.0,
        0.0,
        0.0,
        0.0,
        0.0,
        0.0,
        1.0
      ],
      "name": "model.fbx"
    },
    {
      "children": [
        3
      ],
      "name": "RootNode"
    },
    {
      "children": [
        4,
        5,
        6,
        7,
        8,
        9
      ],
      "matrix": [
        1.0,
        0.0,
        0.0,
        0.0,
        0.0,
        2.220446049250313e-16,
        -1.0,
        0.0,
        0.0,
        1.0,
        2.220446049250313e-16,
        0.0,
        0.0,
        0.0,
        0.0,
        1.0
      ],
      "name": "model"
    },
    {
      "mesh": 0,
      "name": "model_tex_u1_v1_0"
    },
    {
      "mesh": 1,
      "name": "model_tex_u1_v1_0"
    },
    {
      "mesh": 2,
      "name": "model_tex_u1_v1_0"
    },
    {
      "mesh": 3,
      "name": "model_tex_u1_v1_0"
    },
    {
      "mesh": 4,
      "name": "model_tex_u1_v1_0"
    },
    {
      "mesh": 5,
      "name": "model_tex_u1_v1_0"
    }
  ],
  "samplers": [
    {
      "magFilter": 9729,
      "minFilter": 9987,
      "wrapS": 10497,
      "wrapT": 10497
    }
  ],
  "scene": 0,
  "scenes": [
    {
      "name": "Sketchfab_Scene",
      "nodes": [
        0
      ]
    }
  ],
  "textures": [
    {
      "sampler": 0,
      "source": 0
    }
  ]
}
