<svg width="212" height="43" viewBox="0 0 212 43" fill="none" xmlns="http://www.w3.org/2000/svg">
<mask id="path-1-outside-1_152_414" maskUnits="userSpaceOnUse" x="-1" y="-1" width="214" height="45" fill="black">
<rect fill="white" x="-1" y="-1" width="214" height="45"/>
<path d="M22.808 0.143997C27.416 0.143997 31.4053 0.890664 34.776 2.384L32.6 11.664H31.704C29.6133 10.512 27.736 9.70133 26.072 9.232C24.4507 8.72 22.7227 8.464 20.888 8.464C18.584 8.464 16.7493 8.89066 15.384 9.744C14.0187 10.5547 12.9947 11.92 12.312 13.84C11.672 15.76 11.352 18.384 11.352 21.712C11.352 24.9973 11.672 27.5787 12.312 29.456C12.952 31.2907 13.9547 32.6133 15.32 33.424C16.728 34.2347 18.648 34.64 21.08 34.64C22.2747 34.64 23.6613 34.4267 25.24 34L25.304 31.12L25.112 24.4L34.648 23.696L34.52 29.392L34.584 39.952C29.5067 41.744 24.7067 42.64 20.184 42.64C13.656 42.64 8.74933 40.8907 5.464 37.392C2.17867 33.8507 0.536 28.7947 0.536 22.224C0.536 15.056 2.456 9.59467 6.296 5.84C10.136 2.04266 15.64 0.143997 22.808 0.143997ZM51.7155 28.752L52.0995 42H41.6675L42.2435 29.776L41.6675 0.719997H52.2915L51.7155 28.752ZM88.561 1.488L87.985 9.104L79.921 8.72H78.129L77.809 28.752L78.193 42H67.825L68.401 29.776L68.081 8.72H66.161L58.033 9.104L57.393 8.336L58.033 0.719997H87.985L88.561 1.488ZM129.067 28.752L129.451 42H119.083L119.595 29.776L119.531 25.616L111.211 25.552L103.851 25.744L103.787 28.752L104.171 42H93.803L94.315 29.776L93.803 0.719997H104.299L103.979 17.168L111.851 17.296L119.403 17.168L119.083 0.719997H129.643L129.067 28.752ZM171.189 21.648L171.125 27.6C171.167 32.4213 169.674 36.1333 166.645 38.736C163.658 41.3387 159.391 42.64 153.845 42.64C148.469 42.64 144.351 41.36 141.493 38.8C138.677 36.24 137.333 32.5707 137.461 27.792L137.589 21.52L137.333 0.719997H147.701L147.253 26.384C147.21 29.1147 147.765 31.12 148.917 32.4C150.069 33.68 151.861 34.32 154.293 34.32C156.767 34.32 158.581 33.7013 159.733 32.464C160.927 31.184 161.503 29.2427 161.461 26.64L161.013 0.719997H171.573L171.189 21.648ZM203.48 20.688C206.253 21.3707 208.28 22.5013 209.56 24.08C210.84 25.616 211.48 27.664 211.48 30.224C211.48 34.3627 209.816 37.4347 206.488 39.44C203.203 41.4027 198.296 42.384 191.768 42.384C187.501 42.384 183.427 42.256 179.544 42H179.48L180.056 29.776L179.48 0.719997L195.736 0.655998C200.131 0.655998 203.565 1.552 206.04 3.344C208.515 5.136 209.752 7.71733 209.752 11.088C209.752 13.264 209.197 15.184 208.088 16.848C207.021 18.4693 205.485 19.7493 203.48 20.688ZM199.192 12.496C199.192 10.7467 198.637 9.53067 197.528 8.848C196.461 8.16533 194.52 7.824 191.704 7.824H189.656L189.4 17.872L194.904 18.128C196.355 17.7013 197.421 17.04 198.104 16.144C198.829 15.248 199.192 14.032 199.192 12.496ZM193.688 35.216C195.992 35.216 197.784 34.7467 199.064 33.808C200.344 32.8693 200.984 31.5253 200.984 29.776C200.984 28.4533 200.579 27.408 199.768 26.64C198.957 25.8293 197.699 25.232 195.992 24.848L189.272 24.976L189.208 28.752L189.4 34.96C191.619 35.1307 193.048 35.216 193.688 35.216Z"/>
</mask>
<path d="M22.808 0.143997C27.416 0.143997 31.4053 0.890664 34.776 2.384L32.6 11.664H31.704C29.6133 10.512 27.736 9.70133 26.072 9.232C24.4507 8.72 22.7227 8.464 20.888 8.464C18.584 8.464 16.7493 8.89066 15.384 9.744C14.0187 10.5547 12.9947 11.92 12.312 13.84C11.672 15.76 11.352 18.384 11.352 21.712C11.352 24.9973 11.672 27.5787 12.312 29.456C12.952 31.2907 13.9547 32.6133 15.32 33.424C16.728 34.2347 18.648 34.64 21.08 34.64C22.2747 34.64 23.6613 34.4267 25.24 34L25.304 31.12L25.112 24.4L34.648 23.696L34.52 29.392L34.584 39.952C29.5067 41.744 24.7067 42.64 20.184 42.64C13.656 42.64 8.74933 40.8907 5.464 37.392C2.17867 33.8507 0.536 28.7947 0.536 22.224C0.536 15.056 2.456 9.59467 6.296 5.84C10.136 2.04266 15.64 0.143997 22.808 0.143997ZM51.7155 28.752L52.0995 42H41.6675L42.2435 29.776L41.6675 0.719997H52.2915L51.7155 28.752ZM88.561 1.488L87.985 9.104L79.921 8.72H78.129L77.809 28.752L78.193 42H67.825L68.401 29.776L68.081 8.72H66.161L58.033 9.104L57.393 8.336L58.033 0.719997H87.985L88.561 1.488ZM129.067 28.752L129.451 42H119.083L119.595 29.776L119.531 25.616L111.211 25.552L103.851 25.744L103.787 28.752L104.171 42H93.803L94.315 29.776L93.803 0.719997H104.299L103.979 17.168L111.851 17.296L119.403 17.168L119.083 0.719997H129.643L129.067 28.752ZM171.189 21.648L171.125 27.6C171.167 32.4213 169.674 36.1333 166.645 38.736C163.658 41.3387 159.391 42.64 153.845 42.64C148.469 42.64 144.351 41.36 141.493 38.8C138.677 36.24 137.333 32.5707 137.461 27.792L137.589 21.52L137.333 0.719997H147.701L147.253 26.384C147.21 29.1147 147.765 31.12 148.917 32.4C150.069 33.68 151.861 34.32 154.293 34.32C156.767 34.32 158.581 33.7013 159.733 32.464C160.927 31.184 161.503 29.2427 161.461 26.64L161.013 0.719997H171.573L171.189 21.648ZM203.48 20.688C206.253 21.3707 208.28 22.5013 209.56 24.08C210.84 25.616 211.48 27.664 211.48 30.224C211.48 34.3627 209.816 37.4347 206.488 39.44C203.203 41.4027 198.296 42.384 191.768 42.384C187.501 42.384 183.427 42.256 179.544 42H179.48L180.056 29.776L179.48 0.719997L195.736 0.655998C200.131 0.655998 203.565 1.552 206.04 3.344C208.515 5.136 209.752 7.71733 209.752 11.088C209.752 13.264 209.197 15.184 208.088 16.848C207.021 18.4693 205.485 19.7493 203.48 20.688ZM199.192 12.496C199.192 10.7467 198.637 9.53067 197.528 8.848C196.461 8.16533 194.52 7.824 191.704 7.824H189.656L189.4 17.872L194.904 18.128C196.355 17.7013 197.421 17.04 198.104 16.144C198.829 15.248 199.192 14.032 199.192 12.496ZM193.688 35.216C195.992 35.216 197.784 34.7467 199.064 33.808C200.344 32.8693 200.984 31.5253 200.984 29.776C200.984 28.4533 200.579 27.408 199.768 26.64C198.957 25.8293 197.699 25.232 195.992 24.848L189.272 24.976L189.208 28.752L189.4 34.96C191.619 35.1307 193.048 35.216 193.688 35.216Z" fill="#FF0000"/>
<path d="M34.776 2.384L35.7496 2.61229L35.9388 1.80541L35.1811 1.46971L34.776 2.384ZM32.6 11.664V12.664H33.3926L33.5736 11.8923L32.6 11.664ZM31.704 11.664L31.2214 12.5398L31.4467 12.664H31.704V11.664ZM26.072 9.232L25.7709 10.1856L25.7856 10.1902L25.8005 10.1944L26.072 9.232ZM15.384 9.744L15.8945 10.6039L15.9043 10.598L15.914 10.592L15.384 9.744ZM12.312 13.84L11.3698 13.505L11.3665 13.5143L11.3633 13.5238L12.312 13.84ZM12.312 29.456L11.3655 29.7787L11.3678 29.7854L12.312 29.456ZM15.32 33.424L14.8094 34.2839L14.821 34.2906L15.32 33.424ZM25.24 34L25.5009 34.9654L26.2231 34.7702L26.2398 34.0222L25.24 34ZM25.304 31.12L26.3038 31.1422L26.3043 31.1168L26.3036 31.0914L25.304 31.12ZM25.112 24.4L25.0384 23.4027L24.0851 23.4731L24.1124 24.4286L25.112 24.4ZM34.648 23.696L35.6478 23.7185L35.6725 22.6176L34.5744 22.6987L34.648 23.696ZM34.52 29.392L33.5203 29.3695L33.5199 29.3838L33.52 29.3981L34.52 29.392ZM34.584 39.952L34.9168 40.895L35.5883 40.658L35.584 39.9459L34.584 39.952ZM5.464 37.392L4.73088 38.0721L4.73502 38.0765L5.464 37.392ZM6.296 5.84L6.99513 6.55502L6.99915 6.55105L6.296 5.84ZM22.808 1.144C27.3103 1.144 31.1555 1.87372 34.3709 3.29829L35.1811 1.46971C31.6552 -0.0923905 27.5217 -0.856003 22.808 -0.856003V1.144ZM33.8024 2.15571L31.6264 11.4357L33.5736 11.8923L35.7496 2.61229L33.8024 2.15571ZM32.6 10.664H31.704V12.664H32.6V10.664ZM32.1866 10.7882C30.0524 9.61217 28.1027 8.76575 26.3435 8.26955L25.8005 10.1944C27.3693 10.6369 29.1743 11.4118 31.2214 12.5398L32.1866 10.7882ZM26.3731 8.27842C24.647 7.73332 22.8168 7.464 20.888 7.464V9.464C22.6286 9.464 24.2543 9.70668 25.7709 10.1856L26.3731 8.27842ZM20.888 7.464C18.4733 7.464 16.4327 7.90931 14.854 8.896L15.914 10.592C17.066 9.87202 18.6947 9.464 20.888 9.464V7.464ZM14.8735 8.88414C13.2562 9.84441 12.1081 11.4285 11.3698 13.505L13.2542 14.175C13.8813 12.4115 14.7812 11.2649 15.8945 10.6039L14.8735 8.88414ZM11.3633 13.5238C10.6745 15.5902 10.352 18.3364 10.352 21.712H12.352C12.352 18.4316 12.6695 15.9298 13.2607 14.1562L11.3633 13.5238ZM10.352 21.712C10.352 25.045 10.6744 27.7516 11.3655 29.7787L13.2585 29.1333C12.6696 27.4058 12.352 24.9497 12.352 21.712H10.352ZM11.3678 29.7854C12.0674 31.7908 13.1991 33.3277 14.8095 34.2839L15.8305 32.5641C14.7102 31.8989 13.8366 30.7905 13.2562 29.1266L11.3678 29.7854ZM14.821 34.2906C16.438 35.2216 18.5535 35.64 21.08 35.64V33.64C18.7425 33.64 17.018 33.2477 15.819 32.5574L14.821 34.2906ZM21.08 35.64C22.3884 35.64 23.8661 35.4072 25.5009 34.9654L24.9791 33.0346C23.4566 33.4461 22.1609 33.64 21.08 33.64V35.64ZM26.2398 34.0222L26.3038 31.1422L24.3042 31.0978L24.2402 33.9778L26.2398 34.0222ZM26.3036 31.0914L26.1116 24.3714L24.1124 24.4286L24.3044 31.1486L26.3036 31.0914ZM25.1856 25.3973L34.7216 24.6933L34.5744 22.6987L25.0384 23.4027L25.1856 25.3973ZM33.6483 23.6735L33.5203 29.3695L35.5197 29.4145L35.6478 23.7185L33.6483 23.6735ZM33.52 29.3981L33.584 39.9581L35.584 39.9459L35.52 29.3859L33.52 29.3981ZM34.2512 39.009C29.2609 40.7703 24.574 41.64 20.184 41.64V43.64C24.8393 43.64 29.7524 42.7177 34.9168 40.895L34.2512 39.009ZM20.184 41.64C13.8291 41.64 9.22876 39.9404 6.19298 36.7075L4.73502 38.0765C8.26991 41.841 13.4829 43.64 20.184 43.64V41.64ZM6.19711 36.7119C3.13713 33.4135 1.536 28.6346 1.536 22.224H-0.464C-0.464 28.9548 1.2202 34.2879 4.73089 38.0721L6.19711 36.7119ZM1.536 22.224C1.536 15.2318 3.40536 10.065 6.99512 6.55501L5.59688 5.12499C1.50665 9.12434 -0.464 14.8802 -0.464 22.224H1.536ZM6.99915 6.55105C10.597 2.99321 15.8143 1.144 22.808 1.144V-0.856003C15.4657 -0.856003 9.67504 1.09212 5.59285 5.12895L6.99915 6.55105ZM51.7155 28.752L50.7157 28.7315L50.7152 28.7562L50.7159 28.781L51.7155 28.752ZM52.0995 42V43H53.1289L53.0991 41.971L52.0995 42ZM41.6675 42L40.6686 41.9529L40.6193 43H41.6675V42ZM42.2435 29.776L43.2424 29.8231L43.244 29.7896L43.2433 29.7562L42.2435 29.776ZM41.6675 0.719997V-0.280003H40.6475L40.6677 0.739817L41.6675 0.719997ZM52.2915 0.719997L53.2913 0.740541L53.3123 -0.280003H52.2915V0.719997ZM50.7159 28.781L51.0999 42.029L53.0991 41.971L52.7151 28.723L50.7159 28.781ZM52.0995 41H41.6675V43H52.0995V41ZM42.6664 42.0471L43.2424 29.8231L41.2446 29.7289L40.6686 41.9529L42.6664 42.0471ZM43.2433 29.7562L42.6673 0.700178L40.6677 0.739817L41.2437 29.7958L43.2433 29.7562ZM41.6675 1.72H52.2915V-0.280003H41.6675V1.72ZM51.2917 0.699454L50.7157 28.7315L52.7153 28.7725L53.2913 0.740541L51.2917 0.699454ZM88.561 1.488L89.5582 1.56341L89.5865 1.18866L89.361 0.888L88.561 1.488ZM87.985 9.104L87.9374 10.1029L88.9088 10.1491L88.9822 9.17941L87.985 9.104ZM79.921 8.72L79.9686 7.72113L79.9448 7.72H79.921V8.72ZM78.129 8.72V7.72H77.1448L77.1291 8.70403L78.129 8.72ZM77.809 28.752L76.8091 28.736L76.8088 28.7585L76.8094 28.781L77.809 28.752ZM78.193 42V43H79.2224L79.1926 41.971L78.193 42ZM67.825 42L66.8261 41.9529L66.7768 43H67.825V42ZM68.401 29.776L69.3999 29.8231L69.4014 29.792L69.4009 29.7608L68.401 29.776ZM68.081 8.72L69.0809 8.7048L69.0659 7.72H68.081V8.72ZM66.161 8.72V7.72H66.1374L66.1138 7.72111L66.161 8.72ZM58.033 9.104L57.2648 9.74418L57.5833 10.1264L58.0802 10.1029L58.033 9.104ZM57.393 8.336L56.3965 8.25226L56.3622 8.66104L56.6248 8.97618L57.393 8.336ZM58.033 0.719997V-0.280003H57.1135L57.0365 0.636259L58.033 0.719997ZM87.985 0.719997L88.785 0.119998L88.485 -0.280003H87.985V0.719997ZM87.5638 1.41258L86.9878 9.02859L88.9822 9.17941L89.5582 1.56341L87.5638 1.41258ZM88.0326 8.10513L79.9686 7.72113L79.8734 9.71887L87.9374 10.1029L88.0326 8.10513ZM79.921 7.72H78.129V9.72H79.921V7.72ZM77.1291 8.70403L76.8091 28.736L78.8089 28.768L79.1289 8.73597L77.1291 8.70403ZM76.8094 28.781L77.1934 42.029L79.1926 41.971L78.8086 28.723L76.8094 28.781ZM78.193 41H67.825V43H78.193V41ZM68.8239 42.0471L69.3999 29.8231L67.4021 29.7289L66.8261 41.9529L68.8239 42.0471ZM69.4009 29.7608L69.0809 8.7048L67.0811 8.73519L67.4011 29.7912L69.4009 29.7608ZM68.081 7.72H66.161V9.72H68.081V7.72ZM66.1138 7.72111L57.9858 8.10511L58.0802 10.1029L66.2082 9.71888L66.1138 7.72111ZM58.8012 8.46382L58.1612 7.69581L56.6248 8.97618L57.2648 9.74418L58.8012 8.46382ZM58.3895 8.41974L59.0295 0.803736L57.0365 0.636259L56.3965 8.25226L58.3895 8.41974ZM58.033 1.72H87.985V-0.280003H58.033V1.72ZM87.185 1.32L87.761 2.088L89.361 0.888L88.785 0.119998L87.185 1.32ZM129.067 28.752L128.067 28.7315L128.067 28.7562L128.067 28.781L129.067 28.752ZM129.451 42V43H130.48L130.451 41.971L129.451 42ZM119.083 42L118.084 41.9582L118.04 43H119.083V42ZM119.595 29.776L120.594 29.8178L120.595 29.7892L120.595 29.7606L119.595 29.776ZM119.531 25.616L120.531 25.6006L120.516 24.6235L119.539 24.616L119.531 25.616ZM111.211 25.552L111.219 24.552L111.202 24.5519L111.185 24.5523L111.211 25.552ZM103.851 25.744L103.825 24.7443L102.872 24.7692L102.851 25.7227L103.851 25.744ZM103.787 28.752L102.787 28.7307L102.787 28.7559L102.787 28.781L103.787 28.752ZM104.171 42V43H105.2L105.171 41.971L104.171 42ZM93.803 42L92.8039 41.9582L92.7602 43H93.803V42ZM94.315 29.776L95.3141 29.8178L95.3154 29.7881L95.3148 29.7584L94.315 29.776ZM93.803 0.719997V-0.280003H92.7852L92.8032 0.737616L93.803 0.719997ZM104.299 0.719997L105.299 0.739449L105.319 -0.280003H104.299V0.719997ZM103.979 17.168L102.979 17.1485L102.96 18.1516L103.963 18.1679L103.979 17.168ZM111.851 17.296L111.835 18.2959L111.851 18.2961L111.868 18.2959L111.851 17.296ZM119.403 17.168L119.42 18.1679L120.422 18.1509L120.403 17.1485L119.403 17.168ZM119.083 0.719997V-0.280003H118.063L118.083 0.739449L119.083 0.719997ZM129.643 0.719997L130.643 0.740541L130.664 -0.280003H129.643V0.719997ZM128.067 28.781L128.451 42.029L130.451 41.971L130.067 28.723L128.067 28.781ZM129.451 41H119.083V43H129.451V41ZM120.082 42.0418L120.594 29.8178L118.596 29.7342L118.084 41.9582L120.082 42.0418ZM120.595 29.7606L120.531 25.6006L118.531 25.6314L118.595 29.7914L120.595 29.7606ZM119.539 24.616L111.219 24.552L111.203 26.552L119.523 26.616L119.539 24.616ZM111.185 24.5523L103.825 24.7443L103.877 26.7437L111.237 26.5517L111.185 24.5523ZM102.851 25.7227L102.787 28.7307L104.787 28.7733L104.851 25.7653L102.851 25.7227ZM102.787 28.781L103.171 42.029L105.171 41.971L104.787 28.723L102.787 28.781ZM104.171 41H93.803V43H104.171V41ZM94.8021 42.0418L95.3141 29.8178L93.3159 29.7342L92.8039 41.9582L94.8021 42.0418ZM95.3148 29.7584L94.8028 0.702379L92.8032 0.737616L93.3152 29.7936L95.3148 29.7584ZM93.803 1.72H104.299V-0.280003H93.803V1.72ZM103.299 0.700546L102.979 17.1485L104.979 17.1875L105.299 0.739449L103.299 0.700546ZM103.963 18.1679L111.835 18.2959L111.867 16.2961L103.995 16.1681L103.963 18.1679ZM111.868 18.2959L119.42 18.1679L119.386 16.1681L111.834 16.2961L111.868 18.2959ZM120.403 17.1485L120.083 0.700546L118.083 0.739449L118.403 17.1875L120.403 17.1485ZM119.083 1.72H129.643V-0.280003H119.083V1.72ZM128.643 0.699454L128.067 28.7315L130.067 28.7725L130.643 0.740541L128.643 0.699454ZM171.189 21.648L170.189 21.6297L170.189 21.6372L171.189 21.648ZM171.125 27.6L170.125 27.5892L170.124 27.599L170.125 27.6088L171.125 27.6ZM166.645 38.736L165.993 37.9775L165.988 37.9821L166.645 38.736ZM141.493 38.8L140.82 39.54L140.825 39.545L141.493 38.8ZM137.461 27.792L138.46 27.8188L138.46 27.8124L137.461 27.792ZM137.589 21.52L138.588 21.5404L138.589 21.524L138.588 21.5077L137.589 21.52ZM137.333 0.719997V-0.280003H136.32L136.333 0.732304L137.333 0.719997ZM147.701 0.719997L148.7 0.737451L148.718 -0.280003H147.701V0.719997ZM147.253 26.384L146.253 26.3665L146.253 26.3684L147.253 26.384ZM148.917 32.4L149.66 31.731L149.66 31.731L148.917 32.4ZM159.733 32.464L159.001 31.7817L159.001 31.7826L159.733 32.464ZM161.461 26.64L162.46 26.6236L162.46 26.6227L161.461 26.64ZM161.013 0.719997V-0.280003H159.995L160.013 0.737279L161.013 0.719997ZM171.573 0.719997L172.572 0.738343L172.591 -0.280003H171.573V0.719997ZM170.189 21.6372L170.125 27.5892L172.124 27.6108L172.188 21.6588L170.189 21.6372ZM170.125 27.6088C170.165 32.2027 168.752 35.6066 165.993 37.9775L167.296 39.4945C170.595 36.66 172.169 32.64 172.124 27.5911L170.125 27.6088ZM165.988 37.9821C163.244 40.3726 159.246 41.64 153.845 41.64V43.64C159.537 43.64 164.071 42.3047 167.301 39.4899L165.988 37.9821ZM153.845 41.64C148.616 41.64 144.773 40.3952 142.16 38.055L140.825 39.545C143.93 42.3248 148.321 43.64 153.845 43.64V41.64ZM142.165 38.0601C139.618 35.7442 138.338 32.387 138.46 27.8188L136.461 27.7652C136.327 32.7543 137.735 36.7358 140.82 39.5399L142.165 38.0601ZM138.46 27.8124L138.588 21.5404L136.589 21.4996L136.461 27.7716L138.46 27.8124ZM138.588 21.5077L138.332 0.707691L136.333 0.732304L136.589 21.5323L138.588 21.5077ZM137.333 1.72H147.701V-0.280003H137.333V1.72ZM146.701 0.702544L146.253 26.3665L148.252 26.4015L148.7 0.737451L146.701 0.702544ZM146.253 26.3684C146.208 29.2101 146.777 31.5176 148.173 33.069L149.66 31.731C148.752 30.7224 148.211 29.0192 148.252 26.3996L146.253 26.3684ZM148.173 33.069C149.583 34.635 151.697 35.32 154.293 35.32V33.32C152.024 33.32 150.554 32.725 149.66 31.731L148.173 33.069ZM154.293 35.32C156.915 35.32 159.05 34.6647 160.464 33.1454L159.001 31.7826C158.111 32.738 156.619 33.32 154.293 33.32V35.32ZM160.464 33.1463C161.905 31.6023 162.505 29.3609 162.46 26.6236L160.461 26.6564C160.501 29.1244 159.95 30.7657 159.001 31.7817L160.464 33.1463ZM162.46 26.6227L162.012 0.702716L160.013 0.737279L160.461 26.6573L162.46 26.6227ZM161.013 1.72H171.573V-0.280003H161.013V1.72ZM170.573 0.701652L170.189 21.6297L172.188 21.6663L172.572 0.738343L170.573 0.701652ZM203.48 20.688L203.056 19.7823L200.492 20.9824L203.241 21.659L203.48 20.688ZM209.56 24.08L208.783 24.7099L208.792 24.7202L209.56 24.08ZM206.488 39.44L207.001 40.2985L207.004 40.2965L206.488 39.44ZM179.544 42L179.61 41.0022L179.577 41H179.544V42ZM179.48 42L178.481 41.9529L178.432 43H179.48V42ZM180.056 29.776L181.055 29.8231L181.056 29.7896L181.056 29.7562L180.056 29.776ZM179.48 0.719997L179.476 -0.279995L178.46 -0.275995L178.48 0.739817L179.48 0.719997ZM195.736 0.655998V-0.34401L195.732 -0.343994L195.736 0.655998ZM206.04 3.344L205.453 4.15394L205.453 4.15394L206.04 3.344ZM208.088 16.848L207.256 16.2933L207.253 16.2984L208.088 16.848ZM197.528 8.848L196.989 9.69027L196.996 9.69503L197.004 9.69966L197.528 8.848ZM189.656 7.824V6.824H188.681L188.656 7.79853L189.656 7.824ZM189.4 17.872L188.4 17.8465L188.375 18.8254L189.354 18.8709L189.4 17.872ZM194.904 18.128L194.858 19.1269L195.025 19.1347L195.186 19.0874L194.904 18.128ZM198.104 16.144L197.327 15.5148L197.317 15.5262L197.309 15.538L198.104 16.144ZM199.768 26.64L199.061 27.3471L199.07 27.3567L199.08 27.366L199.768 26.64ZM195.992 24.848L196.212 23.8724L196.094 23.8459L195.973 23.8482L195.992 24.848ZM189.272 24.976L189.253 23.9762L188.288 23.9946L188.272 24.9591L189.272 24.976ZM189.208 28.752L188.208 28.7351L188.208 28.759L188.208 28.7829L189.208 28.752ZM189.4 34.96L188.4 34.9909L188.428 35.8882L189.323 35.9571L189.4 34.96ZM203.241 21.659C205.886 22.3102 207.686 23.357 208.783 24.7098L210.337 23.4502C208.874 21.6457 206.62 20.4311 203.719 19.717L203.241 21.659ZM208.792 24.7202C209.884 26.031 210.48 27.831 210.48 30.224H212.48C212.48 27.497 211.796 25.201 210.328 23.4398L208.792 24.7202ZM210.48 30.224C210.48 34.0398 208.977 36.773 205.972 38.5835L207.004 40.2965C210.655 38.0964 212.48 34.6855 212.48 30.224H210.48ZM205.975 38.5815C202.919 40.4073 198.228 41.384 191.768 41.384V43.384C198.364 43.384 203.486 42.3981 207.001 40.2985L205.975 38.5815ZM191.768 41.384C187.521 41.384 183.469 41.2566 179.61 41.0022L179.478 42.9978C183.385 43.2554 187.481 43.384 191.768 43.384V41.384ZM179.544 41H179.48V43H179.544V41ZM180.479 42.0471L181.055 29.8231L179.057 29.7289L178.481 41.9529L180.479 42.0471ZM181.056 29.7562L180.48 0.700178L178.48 0.739817L179.056 29.7958L181.056 29.7562ZM179.484 1.71999L195.74 1.65599L195.732 -0.343994L179.476 -0.279995L179.484 1.71999ZM195.736 1.656C200.009 1.656 203.21 2.529 205.453 4.15394L206.627 2.53406C203.921 0.574999 200.252 -0.344002 195.736 -0.344002V1.656ZM205.453 4.15394C207.639 5.73642 208.752 7.99958 208.752 11.088H210.752C210.752 7.43508 209.391 4.53557 206.627 2.53406L205.453 4.15394ZM208.752 11.088C208.752 13.0847 208.246 14.8081 207.256 16.2933L208.92 17.4027C210.149 15.5599 210.752 13.4433 210.752 11.088H208.752ZM207.253 16.2984C206.301 17.7444 204.918 18.9107 203.056 19.7823L203.904 21.5937C206.053 20.5879 207.741 19.1942 208.923 17.3976L207.253 16.2984ZM200.192 12.496C200.192 10.533 199.555 8.9215 198.052 7.99634L197.004 9.69966C197.719 10.1398 198.192 10.9603 198.192 12.496H200.192ZM198.067 8.00573C197.378 7.56469 196.481 7.27729 195.445 7.09511C194.399 6.91113 193.148 6.824 191.704 6.824V8.824C193.076 8.824 194.204 8.90753 195.099 9.06489C196.004 9.22404 196.611 9.44864 196.989 9.69027L198.067 8.00573ZM191.704 6.824H189.656V8.824H191.704V6.824ZM188.656 7.79853L188.4 17.8465L190.4 17.8975L190.656 7.84947L188.656 7.79853ZM189.354 18.8709L194.858 19.1269L194.95 17.1291L189.446 16.8731L189.354 18.8709ZM195.186 19.0874C196.772 18.6209 198.05 17.865 198.899 16.75L197.309 15.538C196.793 16.215 195.937 16.7817 194.622 17.1686L195.186 19.0874ZM198.881 16.7732C199.792 15.6477 200.192 14.1847 200.192 12.496H198.192C198.192 13.8793 197.866 14.8483 197.327 15.5148L198.881 16.7732ZM193.688 36.216C196.112 36.216 198.142 35.7242 199.655 34.6144L198.473 33.0016C197.426 33.7691 195.872 34.216 193.688 34.216V36.216ZM199.655 34.6144C201.221 33.4661 201.984 31.8062 201.984 29.776H199.984C199.984 31.2445 199.467 32.2725 198.473 33.0016L199.655 34.6144ZM201.984 29.776C201.984 28.2336 201.502 26.9056 200.456 25.914L199.08 27.366C199.655 27.9104 199.984 28.673 199.984 29.776H201.984ZM200.475 25.9329C199.478 24.9354 198.013 24.2777 196.212 23.8724L195.772 25.8236C197.385 26.1863 198.437 26.7232 199.061 27.3471L200.475 25.9329ZM195.973 23.8482L189.253 23.9762L189.291 25.9758L196.011 25.8478L195.973 23.8482ZM188.272 24.9591L188.208 28.7351L190.208 28.7689L190.272 24.9929L188.272 24.9591ZM188.208 28.7829L188.4 34.9909L190.4 34.9291L190.208 28.7211L188.208 28.7829ZM189.323 35.9571C191.531 36.1269 193.002 36.216 193.688 36.216V34.216C193.094 34.216 191.706 34.1344 189.477 33.9629L189.323 35.9571Z" fill="white" mask="url(#path-1-outside-1_152_414)"/>
</svg>
